<?xml version="1.0" encoding="UTF-8"?>
<svg id="Layer_1" data-name="Layer 1" xmlns="http://www.w3.org/2000/svg" viewBox="0 0 949.05 842.89">
  <defs>
    <style>
      .cls-1, .cls-2, .cls-3 {
        stroke: #231f20;
        stroke-miterlimit: 10;
      }

      .cls-2 {
        fill: #fff;
      }

      .cls-2, .cls-3 {
        stroke-width: .25px;
      }

      .cls-3 {
        fill: #231f20;
      }
    </style>
  </defs>
  <g id="Layer_4" data-name="Layer 4">
    <rect class="cls-1" x=".5" y=".5" width="948.05" height="841.89"/>
  </g>
  <g id="Layer_3" data-name="Layer 3">
    <path class="cls-3" d="M518.01,166.89c-.17,0-1.71-.08-1.86-.09,.01-.08,1.64,.06,1.86,.09Z"/>
    <path class="cls-2" d="M626.74,199.97c-1.94-1.35-3.58-2.43-3.98-2.7-46.76-30.7-93.04-29.73-93.04-30.19-1.18-.06-52.06-2.16-82.8,5.57-49.93,12.57-83.81,60.42-86.62,64.49-33.06,47.87-31.7,103.39-31.96,134.41-1.08,130.51-1.84,254.5-1.68,384.18,14.47-.28,28.93-.56,43.4-.85,1.13-40.01,2.25-80.02,3.38-120.04,3.16,.48,71.53,9.6,108.96-43.73,17.55-25.01,20.18-52.19,20.58-65.07,0,0,54.9,8.32,127.13-32.25,72.24-40.57,127.16-203.03-3.37-293.82h0Zm-127.25,305.49s-72.62-58.78-25.94-106.77c32.33-33.22,74.98,10.8,82.64,7.64,0,0-29.27-72.07-92.27-34.53-13.49,8.04-30.73,25.1-35.11,49.72-2.47,13.89,2.77,28.49,12.5,57.53,9.98,29.78,17.82,41.41,13.18,57.8-3.18,11.21-10.29,17.92-13.18,20.64-24.93,23.52-64.16,9.19-67.35,7.97-.95-49.14-1.57-115.15-.2-186.64,.27-14.34,.82-35.24,8.83-60.62,4.99-15.81,17.59-56.22,53.4-81.97,60.75-43.7,131.22-8.53,135.23-6.45,10.67,5.56,42.21,25.97,63.76,67.3,25.6,49.11,16.68,201.13-135.49,208.38Z"/>
  </g>
</svg>