<?xml version="1.0" encoding="UTF-8"?>
<svg id="Layer_3" data-name="Layer 3" xmlns="http://www.w3.org/2000/svg" viewBox="0 0 379.26 589.21">
  <defs>
    <style>
      .cls-1 {
        fill: #fff;
        stroke: #231f20;
        stroke-miterlimit: 10;
        stroke-width: .25px;
      }
    </style>
  </defs>
  <path class="cls-1" d="M300.23,33.32c-1.94-1.35-3.58-2.43-3.98-2.7C249.49-.08,203.21,.89,203.21,.43c-1.18-.06-52.06-2.16-82.8,5.57-49.93,12.57-83.81,60.42-86.62,64.49C.73,118.36,2.09,173.88,1.83,204.9,.75,335.41-.01,459.4,.15,589.08c14.47-.28,28.93-.56,43.4-.85,1.13-40.01,2.25-80.02,3.38-120.04,3.16,.48,71.53,9.6,108.96-43.73,17.55-25.01,20.18-52.19,20.58-65.07,0,0,54.9,8.32,127.13-32.25,72.24-40.57,127.16-203.03-3.37-293.82Zm-127.25,305.49s-72.62-58.78-25.94-106.77c32.33-33.22,74.98,10.8,82.64,7.64,0,0-29.27-72.07-92.27-34.53-13.49,8.04-30.73,25.1-35.11,49.72-2.47,13.89,2.77,28.49,12.5,57.53,9.98,29.78,17.82,41.41,13.18,57.8-3.18,11.21-10.29,17.92-13.18,20.64-24.93,23.52-64.16,9.19-67.35,7.97-.95-49.14-1.57-115.15-.2-186.64,.27-14.34,.82-35.24,8.83-60.62,4.99-15.81,17.59-56.22,53.4-81.97,60.75-43.7,131.22-8.53,135.23-6.45,10.67,5.56,42.21,25.97,63.76,67.3,25.6,49.11,16.68,201.13-135.49,208.38Z"/>
</svg>