<svg width="632" height="688" viewBox="0 0 632 688" fill="none" xmlns="http://www.w3.org/2000/svg">
<rect width="632" height="688" fill="#F5F5F5"/>
<rect width="632" height="688" fill="white"/>
<path d="M246 142L251.224 201.246L274.665 209.06L298.256 201.246L303.48 142H246ZM292.134 161.145H264.621L265.235 168.54H291.52L289.484 190.753L274.83 194.795V194.84H274.665L259.891 190.753L258.993 179.407H266.133L266.657 185.11L274.665 187.28L282.703 185.11L283.601 175.799H258.619L256.703 154.005H292.792L292.134 161.145Z" fill="black"/>
<path d="M137.978 59.5959L119.581 74.7481V91.1017C119.581 91.5251 119.749 91.9312 120.048 92.2306C120.348 92.53 120.754 92.6982 121.177 92.6982L132.359 92.6693C132.781 92.6672 133.185 92.4981 133.483 92.1989C133.781 91.8997 133.948 91.4948 133.948 91.0728V81.5224C133.948 81.099 134.116 80.6929 134.415 80.3935C134.715 80.0941 135.121 79.9259 135.544 79.9259H141.93C142.354 79.9259 142.76 80.0941 143.059 80.3935C143.359 80.6929 143.527 81.099 143.527 81.5224V91.0658C143.526 91.2759 143.567 91.484 143.647 91.6783C143.727 91.8726 143.844 92.0491 143.993 92.1979C144.141 92.3467 144.317 92.4648 144.511 92.5453C144.705 92.6258 144.913 92.6673 145.123 92.6673L156.301 92.6982C156.725 92.6982 157.131 92.53 157.43 92.2306C157.73 91.9312 157.898 91.5251 157.898 91.1017V74.7371L139.505 59.5959C139.288 59.4216 139.019 59.3266 138.741 59.3266C138.464 59.3266 138.194 59.4216 137.978 59.5959ZM167.038 69.8946L158.696 63.0185V49.1974C158.696 48.8798 158.57 48.5753 158.345 48.3507C158.121 48.1262 157.816 48 157.499 48H151.911C151.593 48 151.289 48.1262 151.064 48.3507C150.84 48.5753 150.713 48.8798 150.713 49.1974V56.4427L141.78 49.0926C140.922 48.3871 139.847 48.0014 138.736 48.0014C137.626 48.0014 136.55 48.3871 135.693 49.0926L110.435 69.8946C110.313 69.9948 110.213 70.1179 110.139 70.2569C110.066 70.3959 110.02 70.5481 110.005 70.7047C109.991 70.8613 110.007 71.0193 110.053 71.1696C110.099 71.32 110.175 71.4598 110.275 71.5809L112.819 74.6743C112.919 74.7959 113.042 74.8966 113.181 74.9706C113.32 75.0446 113.473 75.0905 113.629 75.1056C113.786 75.1207 113.944 75.1047 114.095 75.0586C114.245 75.0125 114.385 74.9372 114.507 74.8369L137.978 55.5048C138.194 55.3305 138.464 55.2354 138.741 55.2354C139.019 55.2354 139.288 55.3305 139.505 55.5048L162.977 74.8369C163.098 74.9372 163.238 75.0126 163.388 75.0589C163.538 75.1051 163.696 75.1213 163.853 75.1065C164.01 75.0917 164.162 75.0461 164.301 74.9725C164.44 74.8988 164.563 74.7985 164.663 74.6772L167.208 71.5839C167.308 71.4621 167.383 71.3216 167.429 71.1706C167.474 71.0196 167.49 70.861 167.474 70.704C167.458 70.547 167.412 70.3947 167.337 70.2558C167.262 70.1169 167.16 69.9941 167.038 69.8946Z" fill="black"/>
<path d="M304.391 64.2353C304.829 63.8873 305.48 64.2128 305.48 64.7629V87.7212C305.48 90.6963 303.066 93.11 300.091 93.11H253.389C250.414 93.11 248 90.6963 248 87.7212V64.7742C248 64.2128 248.64 63.8985 249.089 64.2465C251.604 66.1999 254.938 68.681 266.389 76.9999C268.758 78.7288 272.755 82.3662 276.74 82.3437C280.748 82.3774 284.823 78.6614 287.102 76.9999C298.553 68.681 301.876 66.1887 304.391 64.2353ZM276.74 78.74C279.345 78.7849 283.094 75.4618 284.98 74.0922C299.878 63.281 301.012 62.338 304.447 59.6436C305.098 59.1384 305.48 58.3526 305.48 57.5218V55.3888C305.48 52.4137 303.066 50 300.091 50H253.389C250.414 50 248 52.4137 248 55.3888V57.5218C248 58.3526 248.382 59.1272 249.033 59.6436C252.468 62.3268 253.602 63.281 268.5 74.0922C270.386 75.4618 274.135 78.7849 276.74 78.74Z" fill="black"/>
<path d="M430 44.504V89.4961C430 92.6115 423.358 94.1717 419.474 91.9688L379.806 69.4727C377.398 68.1072 377.398 65.8929 379.806 64.5274L419.474 42.0313C423.358 39.8282 430 41.3886 430 44.504Z" fill="black"/>
<path d="M111.975 161.92L150.139 137.277C152.777 135.574 157.042 135.574 159.652 137.277L165.994 141.372C168.631 143.076 168.631 145.83 165.994 147.515L138.97 165L166.022 182.467C168.659 184.17 168.659 186.924 166.022 188.609L159.68 192.723C157.042 194.426 152.777 194.426 150.167 192.723L112.003 168.08C109.337 166.377 109.337 163.623 111.975 161.92Z" fill="black"/>
<path d="M442.48 147L434.816 191.068L408.076 200.648L385 191.068L387.347 179.716H397.167L396.209 184.578L410.148 189.894L426.206 184.578L428.457 172.95H388.533L390.449 163.13H430.409L431.667 156.819H391.742L393.694 147H442.48Z" fill="black"/>
<path d="M299.321 253H254.159C250.759 253 248 255.759 248 259.159V304.321C248 307.721 250.759 310.48 254.159 310.48H299.321C302.721 310.48 305.48 307.721 305.48 304.321V259.159C305.48 255.759 302.721 253 299.321 253ZM279.28 297.829C279.28 303.423 275.996 305.977 271.21 305.977C266.886 305.977 264.384 303.744 263.101 301.037L267.502 298.381C268.349 299.882 269.119 301.152 270.979 301.152C272.75 301.152 273.879 300.459 273.879 297.752V279.392H279.28V297.829ZM292.059 305.977C287.043 305.977 283.797 303.59 282.219 300.459L286.619 297.919C287.774 299.805 289.288 301.204 291.944 301.204C294.176 301.204 295.613 300.087 295.613 298.535C295.613 296.687 294.151 296.033 291.675 294.942L290.327 294.365C286.427 292.71 283.848 290.619 283.848 286.218C283.848 282.163 286.94 279.084 291.752 279.084C295.19 279.084 297.653 280.277 299.424 283.408L295.216 286.102C294.292 284.447 293.291 283.793 291.739 283.793C290.161 283.793 289.16 284.794 289.16 286.102C289.16 287.719 290.161 288.373 292.483 289.387L293.83 289.964C298.423 291.927 301.002 293.942 301.002 298.458C301.002 303.308 297.179 305.977 292.059 305.977Z" fill="black"/>
<path d="M151.842 290.646C153.334 289.625 155.405 288.742 155.405 288.742C155.405 288.742 149.512 289.808 143.65 290.295C136.478 290.889 128.773 291.011 124.905 290.493C115.753 289.275 129.93 285.91 129.93 285.91C129.93 285.91 124.433 285.545 117.657 288.803C109.663 292.671 137.452 294.437 151.842 290.646ZM138.838 285.758C135.945 279.256 126.184 273.546 138.838 263.557C154.622 251.101 146.527 243 146.527 243C149.801 255.867 135.016 259.765 129.671 267.759C126.032 273.226 131.453 279.088 138.838 285.758ZM156.288 258.928C156.303 258.928 129.61 265.597 142.355 280.276C146.116 284.6 141.365 288.499 141.365 288.499C141.365 288.499 150.913 283.565 146.527 277.398C142.431 271.642 139.295 268.78 156.288 258.928ZM155.359 300.117C155.276 300.262 155.174 300.395 155.055 300.513C174.591 295.381 167.404 282.408 158.07 285.697C157.566 285.882 157.13 286.217 156.821 286.656C157.366 286.459 157.926 286.306 158.496 286.199C163.216 285.21 169.992 292.519 155.359 300.117ZM162.54 309.603C162.54 309.603 164.748 311.415 160.119 312.832C151.303 315.496 123.452 316.303 115.717 312.938C112.93 311.735 118.153 310.045 119.798 309.695C121.503 309.329 122.493 309.39 122.493 309.39C119.402 307.213 102.5 313.669 113.905 315.512C145.005 320.567 170.611 313.243 162.54 309.603ZM128.499 303.299C116.515 306.649 135.792 313.562 151.05 307.03C149.562 306.452 148.125 305.749 146.756 304.929C139.949 306.223 136.797 306.314 130.615 305.614C125.514 305.035 128.499 303.299 128.499 303.299ZM155.877 318.1C143.893 320.354 129.108 320.095 120.352 318.648C120.352 318.633 122.149 320.125 131.376 320.719C145.416 321.618 166.978 320.217 167.48 313.578C167.48 313.578 166.505 316.09 155.877 318.1ZM149.238 296.752C140.223 298.488 135.001 298.442 128.407 297.757C123.306 297.224 126.641 294.757 126.641 294.757C113.424 299.142 133.98 304.106 152.451 298.701C151.257 298.279 150.163 297.616 149.238 296.752Z" fill="black"/>
<path d="M437.69 253H389.79C387.146 253 385 255.146 385 257.79V292.917C385 295.561 387.146 297.707 389.79 297.707H437.69C440.334 297.707 442.48 295.561 442.48 292.917V257.79C442.48 255.146 440.334 253 437.69 253ZM402.563 262.58C406.086 262.58 408.95 265.444 408.95 268.967C408.95 272.489 406.086 275.353 402.563 275.353C399.041 275.353 396.177 272.489 396.177 268.967C396.177 265.444 399.041 262.58 402.563 262.58ZM413.74 286.211C413.74 287.268 412.742 288.127 411.505 288.127H393.622C392.385 288.127 391.387 287.268 391.387 286.211V284.295C391.387 281.121 394.39 278.547 398.093 278.547H398.592C399.819 279.056 401.156 279.345 402.563 279.345C403.97 279.345 405.318 279.056 406.535 278.547H407.034C410.736 278.547 413.74 281.121 413.74 284.295V286.211ZM436.093 280.942C436.093 281.381 435.734 281.74 435.295 281.74H420.925C420.486 281.74 420.127 281.381 420.127 280.942V279.345C420.127 278.906 420.486 278.547 420.925 278.547H435.295C435.734 278.547 436.093 278.906 436.093 279.345V280.942ZM436.093 274.555C436.093 274.994 435.734 275.353 435.295 275.353H420.925C420.486 275.353 420.127 274.994 420.127 274.555V272.958C420.127 272.519 420.486 272.16 420.925 272.16H435.295C435.734 272.16 436.093 272.519 436.093 272.958V274.555ZM436.093 268.168C436.093 268.607 435.734 268.967 435.295 268.967H420.925C420.486 268.967 420.127 268.607 420.127 268.168V266.572C420.127 266.133 420.486 265.773 420.925 265.773H435.295C435.734 265.773 436.093 266.133 436.093 266.572V268.168Z" fill="black"/>
<path d="M161.295 377H118.185C114.218 377 111 380.218 111 384.185V446.455C111 450.422 114.218 453.64 118.185 453.64H161.295C165.262 453.64 168.48 450.422 168.48 446.455V384.185C168.48 380.218 165.262 377 161.295 377ZM132.555 381.79H146.925C148.242 381.79 149.32 382.868 149.32 384.185C149.32 385.502 148.242 386.58 146.925 386.58H132.555C131.238 386.58 130.16 385.502 130.16 384.185C130.16 382.868 131.238 381.79 132.555 381.79ZM139.74 400.95C145.024 400.95 149.32 405.246 149.32 410.53C149.32 415.814 145.024 420.11 139.74 420.11C134.456 420.11 130.16 415.814 130.16 410.53C130.16 405.246 134.456 400.95 139.74 400.95ZM156.505 436.396C156.505 437.983 155.008 439.27 153.152 439.27H126.328C124.472 439.27 122.975 437.983 122.975 436.396V433.522C122.975 428.762 127.481 424.9 133.034 424.9H133.782C135.624 425.663 137.629 426.097 139.74 426.097C141.851 426.097 143.871 425.663 145.698 424.9H146.446C151.999 424.9 156.505 428.762 156.505 433.522V436.396Z" fill="black"/>
<path d="M311.091 377H275.166C272.191 377 269.778 379.414 269.778 382.389V387.778H264.389C261.414 387.778 259 390.191 259 393.166V429.091C259 432.066 261.414 434.48 264.389 434.48H300.314C303.289 434.48 305.702 432.066 305.702 429.091V423.702H311.091C314.066 423.702 316.48 421.289 316.48 418.314V382.389C316.48 379.414 314.066 377 311.091 377ZM300.314 429.091H264.389V405.74H300.314V429.091ZM311.091 418.314H305.702V393.166C305.702 390.191 303.289 387.778 300.314 387.778H275.166V382.389H311.091V418.314Z" fill="black"/>
<g clip-path="url(#clip0_0_1)">
<path d="M459.952 367.046H368.048V443.954H459.952V367.046Z" fill="black" stroke="#231F20" stroke-miterlimit="10"/>
<path d="M418.215 382.246C418.199 382.246 418.05 382.239 418.035 382.238C418.036 382.23 418.194 382.243 418.215 382.246Z" fill="#231F20" stroke="#231F20" stroke-width="0.25" stroke-miterlimit="10"/>
<path d="M428.756 385.268C428.568 385.145 428.409 385.046 428.37 385.021C423.837 382.217 419.351 382.305 419.351 382.263C419.236 382.258 414.304 382.066 411.324 382.772C406.484 383.92 403.2 388.292 402.927 388.663C399.722 393.037 399.854 398.108 399.829 400.942C399.724 412.865 399.651 424.191 399.666 436.038C401.069 436.012 402.471 435.987 403.873 435.96C403.983 432.305 404.091 428.65 404.201 424.994C404.507 425.038 411.135 425.871 414.763 420.999C416.465 418.715 416.72 416.232 416.758 415.055C416.758 415.055 422.08 415.815 429.082 412.109C436.085 408.403 441.409 393.562 428.756 385.268ZM416.42 413.175C416.42 413.175 409.38 407.805 413.905 403.421C417.04 400.387 421.174 404.408 421.917 404.119C421.917 404.119 419.079 397.536 412.972 400.965C411.664 401.699 409.993 403.258 409.568 405.507C409.329 406.776 409.837 408.11 410.78 410.763C411.748 413.483 412.508 414.545 412.058 416.043C411.75 417.067 411.06 417.68 410.78 417.928C408.363 420.077 404.561 418.768 404.251 418.656C404.159 414.167 404.099 408.137 404.232 401.606C404.258 400.296 404.311 398.387 405.088 396.068C405.572 394.624 406.793 390.933 410.264 388.58C416.154 384.588 422.985 387.801 423.374 387.991C424.408 388.499 427.465 390.364 429.554 394.139C432.036 398.625 431.171 412.513 416.42 413.175Z" fill="white" stroke="#231F20" stroke-width="0.25" stroke-miterlimit="10"/>
</g>
<defs>
<clipPath id="clip0_0_1">
<rect width="92" height="77" fill="white" transform="translate(368 367)"/>
</clipPath>
</defs>
</svg>
